<?xml version="1.0" standalone="no"?>
<!DOCTYPE svg PUBLIC "-//W3C//DTD SVG 20010904//EN"
 "http://www.w3.org/TR/2001/REC-SVG-20010904/DTD/svg10.dtd">
<svg version="1.0" xmlns="http://www.w3.org/2000/svg"
 width="900.000000pt" height="900.000000pt" viewBox="0 0 900.000000 900.000000"
 preserveAspectRatio="xMidYMid meet">
<metadata>
Created by potrace 1.10, written by Peter Selinger 2001-2011
</metadata>
<g transform="translate(0.000000,900.000000) scale(0.100000,-0.100000)"
fill="#000000" stroke="none">
<path d="M4299 8946 c-4 -4 -80 -13 -170 -21 -219 -20 -394 -41 -449 -54 -25
-6 -61 -11 -81 -11 -20 0 -50 -7 -65 -15 -16 -8 -43 -15 -60 -15 -17 0 -34 -3
-38 -7 -4 -5 -31 -14 -59 -21 -188 -47 -249 -63 -272 -73 -83 -34 -108 -44
-170 -65 -107 -36 -125 -43 -277 -113 -26 -11 -51 -21 -56 -21 -5 0 -29 -11
-53 -25 -24 -13 -84 -45 -133 -70 -146 -75 -485 -286 -527 -327 -8 -8 -39 -32
-69 -53 -30 -21 -57 -41 -60 -45 -3 -4 -27 -24 -54 -44 -144 -109 -367 -319
-511 -481 -116 -131 -141 -161 -182 -215 -23 -30 -51 -65 -62 -77 -12 -12 -21
-25 -21 -28 0 -3 -28 -43 -62 -90 -35 -46 -81 -112 -103 -147 -105 -168 -194
-318 -200 -340 -5 -12 -18 -39 -29 -58 -22 -36 -82 -157 -109 -220 -8 -19 -27
-60 -41 -91 -14 -31 -26 -59 -26 -63 0 -5 -6 -22 -14 -39 -8 -18 -24 -61 -37
-97 -34 -100 -48 -139 -58 -158 -8 -16 -18 -54 -46 -172 -8 -30 -21 -80 -30
-110 -34 -114 -47 -167 -55 -229 -5 -35 -12 -72 -16 -83 -6 -19 -24 -155 -52
-393 -30 -261 -20 -719 24 -1005 3 -19 14 -98 25 -175 11 -77 27 -160 35 -185
8 -25 14 -56 14 -70 0 -15 4 -30 9 -35 5 -6 14 -30 19 -55 6 -25 18 -70 26
-100 8 -30 20 -75 26 -100 7 -25 18 -59 26 -77 8 -17 14 -35 14 -41 0 -5 7
-23 15 -38 8 -16 15 -36 15 -44 0 -9 4 -20 8 -25 5 -6 19 -41 31 -80 13 -38
40 -106 61 -150 21 -44 48 -105 61 -135 13 -30 32 -71 44 -90 12 -19 39 -71
61 -115 21 -44 42 -82 46 -85 4 -3 12 -17 18 -30 22 -51 185 -306 233 -365 13
-16 41 -55 62 -85 21 -30 41 -57 45 -60 4 -3 24 -27 45 -55 125 -166 466 -507
655 -656 30 -23 57 -46 60 -49 19 -27 327 -240 423 -294 29 -15 54 -32 57 -36
11 -17 532 -280 555 -280 4 0 21 -6 38 -14 18 -7 55 -21 82 -31 48 -17 82 -30
150 -59 38 -16 129 -43 175 -52 19 -3 40 -10 45 -14 6 -4 29 -11 52 -15 24 -4
45 -11 49 -16 3 -5 15 -9 27 -9 12 0 42 -6 67 -14 25 -8 101 -24 170 -36 69
-12 148 -25 175 -31 124 -24 546 -63 680 -62 114 0 480 23 525 33 25 6 82 14
128 20 212 26 250 32 296 45 27 8 64 15 81 15 17 0 35 4 41 10 5 5 30 14 54
19 25 5 86 21 135 35 50 15 115 34 145 43 30 9 69 22 85 29 17 7 48 20 70 29
22 9 49 20 60 25 11 5 31 12 45 15 14 4 39 12 55 20 71 32 104 45 114 45 6 0
11 4 11 9 0 5 10 13 23 16 29 9 85 32 119 51 14 7 33 14 42 14 9 0 16 4 16 8
0 5 35 26 77 48 156 79 385 223 556 349 156 115 406 330 517 445 178 184 310
337 412 479 78 109 214 314 233 351 10 19 23 42 30 50 7 8 27 41 44 73 17 31
45 83 62 115 65 118 79 145 79 154 0 5 19 51 43 101 64 136 77 166 77 180 0 7
6 24 14 38 7 15 23 54 35 88 12 34 25 69 30 79 5 9 19 53 31 97 37 139 51 189
60 210 5 11 12 36 16 55 3 19 10 41 14 50 4 8 13 47 19 85 7 39 19 111 27 160
28 166 44 289 54 410 14 177 19 205 36 205 12 0 14 29 14 170 0 142 -2 170
-15 170 -18 0 -22 27 -35 200 -5 74 -16 176 -24 225 -8 50 -22 137 -30 195 -8
58 -20 121 -26 140 -5 19 -10 49 -10 65 0 17 -4 35 -9 41 -5 5 -14 29 -19 54
-6 25 -18 70 -27 100 -18 59 -37 127 -56 200 -6 25 -17 59 -24 75 -28 66 -35
82 -54 127 -12 26 -21 54 -21 62 0 8 -7 27 -15 43 -33 64 -135 289 -135 298 0
3 -11 22 -23 43 -13 20 -44 74 -68 120 -49 93 -49 93 -103 177 -86 133 -189
287 -200 298 -7 7 -30 37 -51 67 -116 166 -402 472 -617 661 -145 127 -267
220 -458 348 -41 28 -83 57 -94 63 -10 7 -24 19 -32 26 -7 6 -19 12 -27 12 -8
0 -33 14 -56 30 -23 17 -62 40 -86 52 -25 12 -45 26 -45 30 0 4 -8 8 -17 8
-10 1 -36 12 -58 25 -51 30 -179 95 -188 95 -4 0 -37 14 -74 31 -38 17 -86 39
-108 49 -22 10 -83 32 -135 50 -52 18 -99 36 -104 41 -6 5 -16 9 -24 9 -8 0
-28 6 -45 14 -32 13 -71 24 -177 51 -30 7 -82 21 -115 30 -33 9 -82 21 -110
26 -27 6 -54 15 -60 20 -5 5 -27 9 -50 9 -22 0 -58 5 -80 10 -55 14 -250 39
-435 56 -175 16 -552 30 -561 20z m245 -146 c50 -11 102 -20 117 -20 16 0 40
-10 54 -22 l26 -23 -31 -85 c-33 -90 -37 -101 -69 -220 -29 -107 -55 -182 -77
-225 -6 -11 -25 -67 -43 -125 -18 -58 -39 -121 -46 -140 -25 -67 -45 -147 -45
-176 0 -51 -16 -61 -111 -67 -60 -4 -92 -2 -103 6 -19 14 -78 104 -107 166
-17 35 -127 225 -169 291 -5 8 -18 34 -29 58 -11 24 -43 80 -70 125 -50 85
-93 162 -148 270 -32 61 -32 62 -13 83 30 31 122 52 255 59 141 8 148 5 170
-75 9 -30 22 -77 31 -105 8 -27 21 -75 28 -105 8 -30 21 -79 29 -108 9 -29 23
-76 32 -105 8 -28 20 -80 27 -114 17 -96 40 -80 56 37 45 325 92 613 104 627
14 17 26 16 132 -7z m293 -356 c27 -41 22 -92 -11 -120 -34 -30 -65 -30 -100
-3 -23 18 -27 27 -24 68 3 41 6 48 38 63 49 25 77 23 97 -8z m-1242 -181 c8
-35 23 -45 48 -32 13 7 23 7 34 -2 19 -17 65 -118 58 -130 -3 -5 -21 -16 -40
-25 -40 -19 -40 -21 -20 -88 29 -96 102 -203 157 -232 61 -32 74 -71 37 -118
-41 -52 -165 -26 -243 50 -59 57 -111 161 -131 264 -11 53 -21 60 -71 53 -35
-5 -44 -3 -44 10 0 8 -9 34 -20 58 -27 61 -25 71 18 94 30 17 36 26 34 46 -3
33 14 47 75 64 79 22 100 19 108 -12z m1445 -13 c11 -11 20 -33 20 -49 0 -33
16 -49 33 -32 32 32 195 -4 230 -52 18 -24 18 -25 -4 -78 -30 -71 -48 -99 -65
-99 -7 0 -30 11 -50 25 -43 29 -94 33 -116 8 -27 -32 -30 -75 -12 -186 22
-137 20 -139 -84 -127 -40 4 -75 10 -78 13 -2 2 -5 132 -6 288 l-1 283 49 12
c27 6 52 12 57 13 4 0 16 -8 27 -19z m-202 -22 c15 -15 15 -97 1 -208 -6 -47
-14 -136 -18 -198 -5 -81 -12 -116 -22 -123 -8 -5 -42 -9 -75 -9 -82 0 -88 8
-75 102 5 40 13 151 17 246 5 131 10 176 21 187 18 19 133 21 151 3z m1286
-98 c59 -22 13 -136 -51 -128 -14 2 -35 15 -46 30 -27 36 -16 75 26 93 39 17
40 17 71 5z m-510 -66 c39 -19 52 -18 70 8 15 21 16 21 51 5 20 -9 42 -17 50
-17 8 0 22 -11 30 -24 13 -19 14 -33 6 -67 -45 -203 -57 -250 -78 -296 -13
-28 -23 -54 -23 -57 0 -12 -61 -94 -92 -122 -18 -17 -55 -40 -82 -50 -47 -17
-51 -17 -120 1 -103 26 -164 73 -187 143 -12 38 -4 54 43 78 27 14 78 10 78
-5 0 -4 17 -24 37 -44 30 -31 43 -37 78 -37 26 0 48 6 55 15 18 21 7 28 -45
31 -123 8 -196 116 -166 248 7 30 19 60 27 66 7 7 14 17 14 23 0 22 54 79 98
102 51 27 101 27 156 -1z m-3281 -1 c16 -19 87 -166 87 -181 0 -13 33 -90 124
-290 31 -68 56 -125 56 -128 0 -2 13 -32 29 -66 135 -292 129 -273 95 -309
-49 -51 -82 -72 -109 -65 -13 3 -53 29 -89 56 -36 27 -68 46 -71 41 -3 -6 15
-44 40 -86 25 -42 45 -86 45 -97 0 -23 -93 -128 -124 -141 -20 -8 -25 -6 -149
62 -44 23 -81 40 -85 37 -3 -3 0 -27 7 -54 7 -26 15 -66 18 -89 4 -37 2 -43
-14 -43 -10 0 -34 13 -53 30 -52 44 -71 40 -68 -12 3 -37 0 -43 -17 -46 -14
-2 -26 7 -39 28 -23 40 -40 34 -44 -16 -2 -21 -7 -43 -11 -47 -5 -5 -29 10
-54 32 -56 48 -70 46 -138 -20 -56 -55 -64 -58 -72 -29 -10 39 -52 13 -93 -55
-12 -22 -31 -13 -44 21 -12 30 -50 32 -95 4 -50 -31 -65 -73 -65 -178 0 -92
-8 -114 -36 -92 -14 13 -34 9 -169 -35 l-40 -13 4 -86 3 -86 -41 -38 c-38 -35
-41 -41 -41 -89 0 -82 31 -188 68 -235 13 -16 9 -38 -7 -38 -4 0 -30 22 -57
48 -57 55 -78 66 -92 49 -23 -30 -42 -116 -42 -193 0 -76 2 -85 25 -107 14
-13 49 -32 78 -42 29 -10 56 -21 60 -25 15 -13 -22 -38 -65 -45 -24 -4 -54
-13 -68 -20 -14 -7 -51 -15 -84 -19 -32 -3 -67 -11 -77 -17 -29 -15 -24 -69
17 -156 20 -43 47 -101 60 -129 25 -54 30 -84 14 -84 -5 0 -24 6 -42 14 -18 8
-49 21 -70 30 -58 26 -84 21 -134 -27 l-45 -42 11 -68 c14 -87 21 -98 89 -133
31 -16 57 -37 59 -46 2 -10 -13 -38 -33 -62 -58 -71 -52 -80 105 -159 74 -37
149 -72 165 -77 86 -27 140 -50 139 -59 -2 -26 -5 -31 -13 -31 -6 0 -29 -13
-53 -28 -45 -30 -174 -72 -220 -72 -40 0 -36 -32 7 -61 19 -13 35 -29 35 -36
0 -22 -85 -55 -189 -73 -29 -5 -64 -16 -77 -25 -22 -14 -24 -23 -24 -88 0
-114 40 -218 145 -378 62 -96 71 -102 121 -84 52 19 138 19 153 1 10 -12 7
-18 -16 -32 -15 -10 -52 -40 -81 -68 -55 -53 -65 -84 -37 -120 8 -11 15 -37
15 -58 0 -40 18 -58 70 -73 39 -11 66 -41 94 -105 27 -59 27 -59 84 -70 31 -6
75 -21 97 -32 72 -38 72 -56 3 -89 -63 -30 -108 -70 -108 -98 0 -40 38 -131
85 -201 46 -69 138 -160 162 -160 7 0 24 -24 38 -52 13 -29 40 -71 60 -93 35
-38 37 -39 50 -21 8 10 17 44 21 75 9 81 15 87 50 58 16 -13 43 -27 60 -31 29
-6 35 -3 77 45 61 69 72 61 63 -47 -7 -83 -7 -84 16 -84 13 0 32 6 43 13 56
38 219 62 319 48 159 -23 200 -123 118 -288 -21 -44 -49 -97 -61 -117 -13 -20
-21 -40 -18 -43 4 -3 27 13 52 35 116 102 288 142 374 87 53 -33 100 -94 122
-157 24 -70 25 -194 2 -259 -13 -37 -15 -51 -6 -60 9 -9 13 -2 18 27 4 22 16
57 26 80 10 22 19 44 19 48 0 5 11 21 25 38 14 16 25 35 25 41 1 21 38 57 58
57 27 0 162 -127 205 -193 55 -84 71 -146 72 -274 0 -61 3 -114 6 -118 4 -3
12 20 18 52 6 32 17 87 25 123 8 36 20 92 26 125 27 131 39 165 60 165 20 0
101 -53 150 -97 14 -13 28 -23 32 -23 5 0 8 -16 8 -35 0 -41 15 -46 24 -9 6
22 11 25 34 20 15 -3 72 -13 127 -22 55 -10 105 -23 111 -30 6 -8 14 -88 17
-191 9 -221 16 -295 31 -290 11 4 26 98 45 277 16 146 20 154 68 158 45 3 193
-24 207 -38 9 -9 -1 -65 -25 -146 -14 -45 -5 -90 11 -64 6 8 10 24 10 36 0 22
105 132 156 163 76 46 145 38 206 -25 39 -40 102 -146 126 -211 5 -15 13 -36
17 -45 7 -18 -24 -36 -115 -68 -74 -26 -73 -26 -101 37 -19 44 -34 63 -61 77
-52 28 -89 10 -131 -63 -66 -112 -72 -162 -27 -211 l31 -33 27 27 c36 33 55
33 80 -2 l21 -27 28 28 c33 31 57 33 127 12 71 -22 89 -19 108 14 13 24 24 30
55 33 35 3 38 6 41 36 4 35 15 39 57 20 34 -15 45 0 45 65 0 58 22 64 38 10
19 -63 26 -68 56 -48 32 21 58 13 56 -17 -4 -50 0 -58 26 -58 14 0 38 9 53 20
27 18 28 24 35 132 9 166 48 297 107 366 85 99 187 76 342 -79 42 -43 77 -85
77 -94 0 -15 -34 -69 -56 -90 -6 -5 -23 -27 -39 -47 -15 -21 -33 -38 -40 -38
-6 0 -23 17 -36 37 -31 48 -64 65 -114 59 -40 -5 -85 -42 -85 -70 0 -7 -11
-18 -25 -24 -20 -9 -25 -19 -25 -46 0 -32 -29 -76 -51 -76 -4 0 -9 -12 -12
-26 -3 -18 5 -40 31 -77 19 -29 41 -67 49 -85 18 -44 33 -32 33 28 0 27 5 52
11 56 14 8 60 -26 76 -56 20 -40 72 -88 109 -100 32 -11 40 -10 63 7 23 17 60
89 75 147 4 17 12 18 82 11 43 -4 88 -12 102 -18 22 -10 23 -15 19 -66 -6 -72
-32 -216 -48 -261 -41 -117 -134 -190 -241 -190 -58 0 -62 2 -119 51 -32 28
-74 71 -93 97 -37 51 -113 199 -140 272 -9 25 -27 58 -41 74 l-24 30 -35 -25
c-40 -27 -42 -33 -22 -69 13 -22 12 -27 -10 -47 -13 -12 -34 -23 -46 -25 -21
-3 -23 -8 -26 -80 -2 -55 -7 -78 -15 -78 -23 0 -36 22 -54 93 -15 56 -23 72
-45 83 -16 8 -28 20 -28 28 0 15 -73 76 -92 76 -8 0 -19 5 -25 11 -7 7 -19 8
-30 4 -10 -5 -35 -10 -56 -11 -21 -1 -48 -9 -60 -17 -18 -11 -27 -12 -52 -1
-26 11 -34 10 -60 -6 -79 -49 -86 -50 -113 -29 -31 24 -43 24 -75 -1 -14 -11
-36 -20 -50 -20 -14 0 -27 -5 -29 -11 -5 -15 19 -155 30 -177 5 -9 12 -34 16
-55 10 -53 77 -121 135 -137 54 -14 123 -6 144 18 24 26 38 71 31 98 -6 24 -9
25 -75 22 -38 -1 -73 2 -79 8 -13 13 -31 114 -24 136 7 22 65 48 106 48 16 0
42 7 58 15 16 8 61 16 101 17 l72 3 15 -50 c20 -71 26 -134 14 -159 -6 -11
-13 -54 -16 -94 -9 -103 -51 -158 -171 -224 -57 -31 -66 -33 -160 -33 -87 0
-107 3 -155 26 -71 34 -107 70 -141 145 -32 70 -69 176 -69 198 0 28 52 67 85
64 l30 -3 3 95 c2 90 4 96 30 118 l27 23 -24 19 c-13 11 -31 20 -42 20 -10 0
-23 8 -28 17 -10 17 -12 17 -26 -1 -8 -10 -19 -44 -26 -75 -19 -93 -35 -102
-76 -38 -16 23 -31 43 -35 45 -4 2 -24 15 -44 28 -55 38 -71 30 -113 -53 -20
-40 -41 -73 -47 -73 -6 0 -19 9 -29 20 -15 16 -20 46 -27 138 -12 180 -22 255
-34 259 -6 2 -19 -17 -28 -42 -15 -39 -22 -45 -46 -45 -16 0 -30 7 -34 15 -7
19 -39 19 -77 0 -27 -14 -30 -14 -36 1 -5 15 12 103 44 218 15 58 17 86 4 86
-5 0 -13 -10 -16 -22 -4 -13 -17 -45 -30 -73 -13 -27 -33 -84 -45 -125 -40
-137 -51 -154 -125 -190 l-65 -32 -20 24 c-17 19 -19 31 -14 68 14 96 14 106
3 88 -14 -25 -28 -22 -39 6 -7 19 -17 25 -47 28 l-38 3 -6 85 c-6 94 -30 154
-75 189 -42 33 -60 27 -86 -27 -39 -79 -79 -142 -92 -142 -21 0 -59 114 -52
154 7 38 -6 49 -22 20 -10 -17 -35 -20 -107 -12 -45 5 -43 -4 -30 139 8 83 -6
171 -33 202 -27 31 -105 23 -171 -18 -31 -19 -65 -43 -76 -55 -14 -16 -30 -20
-74 -20 -69 0 -80 7 -92 56 -8 37 -7 41 26 70 40 35 33 44 -31 44 -45 0 -74
16 -74 39 0 10 18 50 40 87 44 76 49 110 22 144 -15 18 -28 22 -66 22 -46 -1
-109 -17 -132 -34 -9 -7 -9 -16 -1 -39 14 -35 1 -49 -45 -49 -34 0 -36 -20 -7
-61 29 -41 12 -61 -42 -53 -43 7 -69 -7 -69 -38 0 -26 -27 -34 -49 -14 -22 20
-41 21 -41 1 0 -8 -13 -36 -28 -62 -39 -66 -54 -148 -37 -190 25 -59 50 -48
208 95 38 34 75 62 82 62 17 0 32 -25 58 -95 35 -93 34 -103 -9 -141 -24 -21
-33 -34 -23 -34 22 0 69 52 69 77 0 50 32 74 43 33 4 -15 14 -20 39 -20 68 0
69 -9 24 -138 -32 -91 -32 -100 0 -167 66 -140 214 -188 314 -103 21 18 39 38
40 43 0 6 11 22 23 36 21 25 25 26 80 19 32 -5 65 -14 72 -20 17 -14 10 -56
-12 -78 -7 -7 -13 -19 -13 -27 0 -13 -8 -22 -90 -95 -66 -59 -250 -130 -337
-130 -15 0 -52 9 -81 20 -92 35 -130 61 -176 122 -60 78 -66 98 -66 210 0 95
3 107 29 155 16 29 25 53 20 53 -6 0 -34 -15 -63 -34 -156 -100 -277 -111
-369 -35 -64 52 -82 99 -81 204 1 51 8 112 17 139 13 41 14 54 4 75 -11 23
-18 26 -55 23 -36 -2 -44 1 -53 22 -6 13 -28 31 -51 39 -55 22 -47 41 35 85
71 39 84 62 47 84 -28 18 -25 38 5 39 14 1 30 3 35 4 6 1 17 3 25 4 42 3 -10
61 -193 213 -78 66 -147 128 -152 138 -6 10 -10 31 -10 47 0 64 -41 142 -156
300 -20 28 -11 43 29 43 44 0 59 11 44 30 -16 20 -119 90 -133 90 -16 0 -47
40 -72 91 -19 40 -21 52 -12 95 6 27 13 68 17 90 l5 42 -48 10 c-56 12 -65 22
-143 161 -47 84 -55 107 -67 188 -19 138 -45 220 -112 359 -21 44 -13 59 30
56 33 -3 37 -1 43 27 4 21 14 33 31 37 22 6 62 54 113 137 l24 39 -40 41 c-74
79 -88 105 -143 254 -7 18 -28 44 -46 58 -49 38 -73 65 -68 79 2 6 17 19 32
28 26 16 27 21 28 95 0 43 4 97 9 121 8 42 7 44 -30 75 l-38 31 6 102 c10 159
26 182 89 123 56 -52 76 -63 92 -50 8 7 25 9 40 5 32 -8 33 5 11 89 -8 32 -15
87 -15 122 0 74 8 82 90 92 28 3 54 11 59 17 9 11 -1 102 -19 184 -14 60 -13
77 8 94 19 16 84 44 123 52 26 6 27 7 34 123 4 64 13 134 21 156 8 22 14 51
14 64 0 14 7 49 15 78 16 55 45 76 72 54 21 -18 33 0 33 52 0 28 5 59 10 69 8
15 5 28 -15 60 -26 42 -32 70 -15 70 15 0 70 -29 99 -51 13 -11 31 -19 39 -19
9 0 51 37 94 82 64 66 76 83 64 90 -32 18 -17 37 32 40 46 3 47 4 48 38 2 55
3 60 14 60 6 0 30 -20 53 -45 50 -52 82 -57 169 -28 44 14 48 18 34 28 -9 7
-16 17 -16 22 0 14 38 38 73 47 43 10 22 26 -34 26 -42 0 -50 3 -47 17 3 19
37 39 81 48 36 7 27 22 -29 45 -67 29 -54 51 39 64 53 8 60 22 20 37 -39 14
-325 158 -340 171 -18 14 -16 19 10 48 12 14 40 48 61 75 61 77 119 135 136
135 8 0 44 -19 79 -42 70 -48 81 -55 178 -116 37 -24 102 -66 143 -93 41 -27
84 -53 95 -58 11 -5 44 -25 72 -45 46 -32 73 -44 73 -33 0 5 -28 66 -41 89 -5
10 -9 26 -9 37 0 10 -7 24 -15 31 -17 14 -20 56 -6 65 6 3 38 -8 73 -24 106
-50 139 -63 145 -58 2 3 -7 23 -21 44 -14 20 -26 41 -26 44 0 4 -45 73 -100
155 -187 277 -220 328 -220 345 0 22 67 82 122 110 24 12 63 32 88 45 55 28
63 29 83 7z m1056 -83 c65 -32 70 -89 15 -159 -2 -2 -9 0 -16 5 -24 18 -85 34
-102 28 -20 -8 -20 -13 1 -36 13 -14 31 -18 87 -18 83 0 104 -11 135 -70 56
-108 1 -215 -129 -250 -43 -12 -118 2 -132 24 -11 17 -9 124 2 131 19 12 10
33 -17 40 -57 14 -110 71 -126 137 -16 63 31 141 103 172 50 22 133 20 179 -4z
m2673 -57 c10 -9 18 -20 18 -25 0 -5 -21 -53 -47 -106 -59 -123 -59 -124 -110
-275 -22 -65 -49 -83 -100 -66 -67 24 -85 39 -78 68 8 34 184 391 204 414 12
15 24 17 56 12 22 -3 47 -13 57 -22z m262 -120 c28 -14 29 -20 15 -73 -3 -11
12 -16 71 -22 67 -7 78 -11 104 -39 27 -30 28 -36 23 -93 -8 -86 -50 -158
-174 -295 l-49 -54 -39 13 c-92 30 -104 57 -57 131 66 103 86 169 54 169 -20
0 -65 -58 -99 -127 -31 -64 -39 -73 -62 -73 -37 0 -108 36 -121 60 -12 22 7
71 59 155 14 22 35 60 47 85 11 25 42 78 68 118 l47 74 42 -7 c23 -4 55 -14
71 -22z m-3359 -6 c22 -7 54 -20 71 -29 34 -19 87 -83 82 -99 -2 -6 -55 -50
-117 -98 -125 -94 -143 -113 -123 -133 36 -36 138 10 126 57 -7 29 33 76 81
93 32 12 39 12 55 -3 50 -45 22 -180 -53 -255 -132 -133 -384 -56 -453 137
-30 85 -3 175 79 269 58 66 159 90 252 61z m3938 -74 c21 -19 24 -100 4 -127
-16 -22 -74 -35 -113 -24 -39 10 -69 64 -55 100 26 67 115 95 164 51z m-194
-193 c28 -22 58 -51 67 -65 18 -28 14 -36 -36 -83 -14 -12 -78 -75 -142 -139
-105 -105 -121 -117 -153 -117 -36 0 -64 23 -65 54 0 21 250 390 265 390 7 0
36 -18 64 -40z m-1934 -59 c39 -5 122 -17 185 -26 117 -16 220 -37 275 -56 17
-6 46 -15 65 -19 65 -16 233 -74 305 -106 225 -99 345 -160 443 -225 24 -16
45 -29 47 -29 5 0 98 -62 105 -70 3 -3 39 -29 80 -59 41 -30 97 -73 125 -95
83 -69 328 -317 385 -391 30 -38 57 -72 60 -75 3 -3 26 -32 51 -65 76 -99 125
-180 211 -345 16 -30 33 -62 38 -70 5 -8 23 -46 41 -85 29 -65 39 -89 75 -170
35 -81 74 -190 74 -209 0 -11 7 -34 15 -50 8 -15 15 -39 15 -52 0 -13 6 -41
14 -61 22 -62 35 -127 47 -230 6 -54 15 -120 20 -148 14 -75 21 -437 9 -540
-23 -216 -58 -427 -75 -454 -3 -6 -10 -32 -15 -59 -4 -26 -13 -60 -18 -77 -6
-16 -18 -57 -27 -90 -9 -33 -23 -75 -31 -93 -8 -18 -14 -40 -14 -48 0 -8 -13
-42 -30 -76 -16 -33 -30 -64 -30 -68 0 -11 -67 -148 -90 -185 -11 -16 -26 -43
-34 -60 -59 -119 -238 -384 -318 -469 -10 -11 -18 -23 -18 -26 0 -13 -328
-331 -404 -392 -148 -119 -161 -128 -231 -170 -38 -24 -71 -46 -73 -50 -2 -5
-8 -8 -13 -8 -4 0 -43 -20 -85 -45 -41 -25 -82 -45 -89 -45 -8 0 -16 -4 -19
-9 -4 -5 -25 -18 -49 -29 -141 -66 -178 -82 -189 -82 -6 0 -34 -11 -63 -24
-63 -30 -124 -53 -190 -71 -27 -7 -75 -20 -105 -29 -177 -53 -412 -85 -675
-92 -296 -8 -497 9 -690 56 -238 58 -317 81 -445 130 -30 12 -67 25 -81 29
-26 9 -132 56 -159 72 -8 5 -53 28 -99 51 -82 42 -99 52 -153 86 -15 9 -55 35
-90 56 -172 108 -404 305 -584 497 -54 58 -216 268 -280 362 -69 104 -153 256
-209 382 -15 33 -40 88 -56 122 -16 35 -29 67 -29 72 0 6 -6 25 -14 43 -14 35
-44 134 -89 298 -47 169 -69 374 -74 685 -4 195 -1 275 11 365 24 168 47 290
62 329 8 18 14 43 14 54 0 12 6 39 14 62 8 22 22 67 31 100 9 33 23 77 31 98
39 103 48 124 60 152 7 17 27 62 44 100 17 39 35 77 40 85 5 8 19 35 30 60 12
25 26 52 31 60 5 8 16 29 25 45 32 59 184 281 250 365 115 146 513 530 549
530 4 0 32 19 63 43 54 41 157 107 167 107 2 0 35 19 72 43 101 63 104 64 158
90 64 31 201 93 258 116 54 22 142 49 180 56 20 4 40 11 43 16 3 5 16 9 29 9
13 0 39 6 57 14 30 13 97 27 273 57 33 5 107 14 165 20 58 5 123 14 145 19 49
11 355 5 450 -9z m2178 -150 c54 -23 127 -91 127 -118 0 -11 7 -26 15 -33 12
-10 22 -5 56 29 43 43 58 48 76 30 8 -8 19 -6 41 5 17 9 39 16 50 16 10 0 23
5 30 12 9 9 12 9 12 0 0 -6 -16 -28 -36 -48 -40 -39 -35 -54 19 -54 38 0 165
-36 193 -55 35 -22 30 -34 -21 -47 -76 -20 -55 -48 36 -48 81 0 121 -38 63
-60 -27 -11 -24 -30 6 -30 10 0 39 -9 65 -20 38 -16 46 -24 40 -38 -4 -9 -16
-39 -26 -65 -10 -27 -25 -60 -34 -73 -9 -14 -13 -29 -10 -34 3 -6 34 -10 69
-10 56 0 64 3 73 23 11 21 11 21 18 2 3 -11 11 -27 16 -35 5 -8 13 -25 19 -37
6 -14 18 -23 32 -23 32 0 134 -20 203 -40 69 -21 68 -19 35 -125 -28 -90 -39
-151 -46 -251 l-6 -81 48 -6 c45 -5 52 -3 81 25 30 29 31 30 42 10 6 -12 11
-73 11 -140 0 -83 5 -133 16 -166 16 -47 18 -48 50 -43 26 4 35 1 47 -16 13
-19 17 -20 41 -9 64 29 85 6 41 -46 -14 -17 -25 -34 -25 -40 0 -5 -7 -15 -16
-22 -10 -9 -14 -26 -12 -49 2 -29 -1 -36 -17 -39 -45 -7 -48 -11 -33 -35 30
-47 48 -117 63 -242 19 -162 18 -159 54 -152 29 6 57 -12 49 -32 -1 -5 -26
-27 -54 -49 -48 -38 -52 -45 -88 -153 -21 -63 -44 -127 -51 -144 -34 -75 -45
-104 -45 -114 0 -16 -43 -82 -69 -105 -20 -19 -27 -46 -15 -59 4 -3 23 2 43
13 61 32 144 70 154 70 6 0 7 -21 3 -50 l-7 -50 43 0 c24 0 77 10 118 21 111
31 114 30 120 -13 3 -24 14 -44 33 -58 34 -27 35 -62 3 -127 -91 -186 -117
-248 -125 -298 -5 -31 -11 -40 -30 -45 -15 -3 -27 -15 -31 -30 -4 -14 -19 -48
-34 -77 -14 -29 -26 -57 -26 -63 0 -6 -11 -28 -25 -50 -26 -41 -32 -75 -15
-85 23 -14 7 -47 -46 -97 -96 -91 -204 -233 -204 -270 0 -5 14 -14 30 -20 17
-5 35 -18 40 -29 9 -15 5 -21 -20 -34 -35 -18 -37 -28 -10 -62 11 -14 20 -35
20 -46 0 -19 -4 -20 -74 -14 l-75 7 -35 -59 c-20 -32 -40 -82 -46 -110 -5 -28
-18 -68 -29 -89 -31 -58 -70 -149 -77 -179 -4 -16 -15 -47 -25 -69 -15 -36
-21 -41 -43 -37 -21 4 -38 -8 -106 -77 -69 -71 -79 -84 -69 -101 8 -16 6 -23
-13 -39 -13 -11 -27 -19 -31 -20 -16 0 -67 -44 -67 -57 0 -8 16 -21 35 -29 35
-14 45 -32 23 -38 -7 -2 -46 -10 -86 -17 -40 -7 -75 -16 -77 -19 -3 -4 6 -23
18 -41 18 -27 31 -35 65 -40 61 -8 96 -46 112 -121 14 -62 6 -117 -26 -193 -6
-16 -27 -66 -45 -110 -18 -44 -42 -96 -54 -115 -11 -19 -35 -64 -53 -100 -35
-72 -136 -203 -160 -209 -17 -3 -59 39 -142 144 -69 88 -71 90 -169 208 -44
53 -81 105 -81 116 0 16 12 19 122 24 146 6 155 12 132 85 -17 58 -18 116 -1
130 6 5 37 20 67 33 30 12 63 31 73 41 21 21 40 23 67 6 10 -7 22 -9 26 -5 8
8 -73 177 -85 177 -4 0 -14 -11 -21 -25 -8 -14 -28 -34 -44 -45 -17 -10 -44
-32 -60 -49 -26 -27 -37 -31 -85 -31 -32 -1 -64 -7 -75 -15 -19 -15 -19 -14 5
-110 19 -75 21 -93 10 -99 -18 -11 -264 15 -288 30 -13 8 -23 10 -23 6 0 -10
33 -85 50 -112 63 -107 71 -124 66 -146 -4 -15 -14 -24 -25 -24 -20 0 -137 65
-147 81 -3 5 -24 9 -47 9 l-42 1 -82 167 c-45 92 -85 177 -88 189 -4 16 4 29
38 57 24 20 48 36 52 36 5 0 19 10 32 22 20 19 27 20 43 10 27 -16 30 -15 30
8 0 22 37 62 76 83 13 7 62 32 111 57 48 24 104 54 123 65 51 31 121 55 158
55 23 0 43 -10 69 -33 35 -33 36 -35 38 -118 2 -81 3 -84 26 -84 18 0 26 8 32
30 15 50 23 60 49 63 25 3 25 5 30 111 3 60 9 114 13 121 9 15 54 -36 55 -63
0 -25 24 -31 53 -12 24 15 26 15 35 -1 13 -24 42 -10 42 20 0 17 11 33 30 47
42 32 88 92 94 125 6 29 21 44 48 44 10 0 19 11 23 30 4 17 48 93 99 170 60
89 97 155 105 187 6 26 16 60 20 75 10 31 -8 65 -63 117 -20 19 -36 42 -36 51
0 8 24 31 53 49 28 19 78 54 109 78 31 23 87 59 124 78 54 28 78 49 117 101
l50 66 -7 72 c-6 61 -4 76 12 97 20 27 45 86 91 219 7 19 22 61 33 93 14 40
28 62 44 69 30 14 35 30 28 79 -6 36 -9 39 -39 39 -18 0 -38 -7 -45 -15 -7 -8
-19 -15 -28 -15 -8 0 -37 -13 -63 -30 -54 -33 -84 -31 -72 4 4 11 7 32 7 46 1
20 -3 24 -19 22 -98 -15 -233 -23 -288 -18 -81 9 -85 22 -29 87 21 24 48 58
61 74 12 17 37 46 54 65 58 64 95 125 117 191 11 35 27 78 34 94 27 64 49 143
43 156 -4 8 -12 22 -19 31 -10 13 -9 22 2 43 12 22 11 32 -4 76 -19 52 -16 64
19 71 34 6 31 94 -11 319 -8 42 -14 87 -14 101 0 14 -14 43 -31 64 -18 22 -40
59 -51 82 -11 24 -34 56 -51 72 l-31 27 -45 -25 c-26 -14 -54 -30 -63 -36 -13
-8 -21 -7 -29 1 -9 9 -7 35 11 110 12 54 26 109 31 122 11 26 33 213 34 281 0
43 -1 45 -33 50 -22 3 -37 13 -45 30 -32 64 -120 72 -229 21 -32 -16 -60 -26
-63 -23 -10 10 -5 40 9 52 30 24 2 46 -91 70 -53 13 -54 23 -13 138 29 82 29
83 9 103 -10 10 -28 19 -39 19 -21 0 -40 27 -40 59 0 22 -14 28 -25 11 -11
-17 -22 -3 -33 42 -6 24 -18 52 -26 63 -14 19 -15 19 -27 -13 -6 -18 -20 -37
-30 -43 -21 -11 -59 -4 -59 12 0 20 -27 7 -43 -21 -33 -56 -57 -35 -57 51 0
36 -4 49 -14 49 -15 0 -153 -99 -219 -157 -20 -18 -44 -33 -54 -33 -21 0 -93
78 -93 102 0 10 -8 21 -17 25 -61 22 -133 107 -133 157 0 32 22 97 52 151 54
100 198 144 311 96z m985 -313 c-2 -28 -7 -33 -28 -33 -16 0 -26 6 -28 18 -6
30 6 47 33 47 24 0 26 -3 23 -32z m-6310 -690 c17 -17 15 -64 -4 -83 -23 -22
-56 -15 -73 16 -13 24 -13 29 2 53 19 28 54 35 75 14z m6003 -129 c39 -39 9
-126 -53 -160 -24 -13 -76 15 -88 46 -14 37 -1 82 32 110 36 31 81 32 109 4z
m-7067 -502 c-3 -9 -12 -17 -19 -17 -19 0 -27 30 -14 47 10 12 14 12 26 0 8
-7 11 -21 7 -30z m7424 -176 c8 -4 12 -19 10 -32 -2 -18 -10 -25 -30 -27 -25
-3 -28 0 -28 26 0 41 17 53 48 33z m-6873 -283 c46 -55 19 -130 -52 -144 -27
-5 -37 -1 -63 24 -46 47 -38 95 23 132 44 27 61 25 92 -12z m7553 -340 c66
-72 31 -188 -58 -188 -63 0 -98 54 -79 124 15 55 45 86 84 86 20 0 39 -8 53
-22z m-610 -905 c-3 -35 -6 -38 -33 -38 -21 0 -31 5 -33 18 -5 23 25 57 50 57
16 0 19 -6 16 -37z m-7100 -196 c60 -55 -16 -152 -81 -104 -10 6 -20 29 -23
49 -5 30 -2 41 19 62 28 28 47 27 85 -7z m-600 -37 c2 -14 -3 -34 -11 -44 -14
-19 -14 -19 -35 2 -14 14 -19 28 -15 39 15 40 56 42 61 3z m7252 -845 c43 -22
41 -63 -5 -110 -39 -38 -51 -41 -89 -23 -31 13 -40 38 -32 84 11 55 70 78 126
49z m610 -35 c0 -28 -25 -43 -49 -30 -28 14 -27 48 2 59 26 10 47 -3 47 -29z
m-6742 -303 c-2 -17 -11 -23 -35 -25 -29 -3 -33 0 -33 22 0 14 8 29 17 35 25
14 55 -5 51 -32z m-581 7 c48 -13 46 -110 -2 -132 -36 -17 -48 -15 -73 8 -31
29 -31 93 0 114 24 17 40 19 75 10z m5420 -809 c40 -60 76 -114 80 -120 136
-173 137 -177 29 -187 -28 -3 -31 -8 -55 -86 -17 -59 -28 -82 -39 -80 -20 4
-282 442 -282 471 0 28 19 47 78 77 23 12 45 26 48 32 3 5 20 8 37 6 28 -3 40
-16 104 -113z m-409 -245 c55 -208 60 -241 35 -274 -10 -14 -22 -26 -27 -26
-5 0 -41 24 -80 53 -39 29 -84 58 -101 63 -21 7 -36 23 -52 54 -12 25 -22 52
-22 61 -1 9 -10 36 -20 59 -23 52 -19 65 28 91 20 11 63 36 96 55 94 53 92 55
143 -136z m879 -101 c63 -35 79 -40 94 -30 31 19 39 13 68 -51 38 -85 57 -209
41 -269 -21 -79 -104 -172 -197 -221 -47 -24 -140 -34 -184 -19 -40 14 -46 9
-25 -23 9 -14 16 -32 16 -40 0 -22 -106 -87 -297 -182 -136 -68 -183 -86 -220
-87 l-47 -2 -34 70 c-19 39 -58 130 -88 202 -29 73 -58 141 -63 150 -23 46
-72 185 -74 209 -3 42 17 39 49 -8 16 -24 48 -63 70 -87 41 -42 64 -47 64 -13
1 24 34 116 43 120 25 8 27 5 61 -128 10 -36 24 -88 32 -116 8 -28 14 -60 14
-70 0 -11 6 -29 14 -39 12 -17 16 -18 31 -5 10 8 28 31 40 51 13 19 40 56 62
81 21 25 58 69 82 98 24 29 56 56 70 61 25 9 26 12 29 107 4 127 15 170 49
183 56 21 84 9 131 -58 31 -45 50 -63 66 -63 50 0 59 46 26 132 -22 58 -25 88
-10 88 6 0 44 -19 87 -41z m-4058 -280 c15 -61 6 -99 -51 -215 -28 -59 20 -79
120 -48 72 22 101 37 181 97 87 64 100 62 131 -21 18 -47 19 -56 6 -85 -14
-34 -140 -157 -160 -157 -7 0 -17 -5 -23 -11 -19 -19 -114 -47 -178 -54 -135
-13 -392 57 -403 110 -8 39 129 225 165 225 11 0 92 78 116 110 23 33 45 71
53 93 11 31 28 13 43 -44z m818 -231 c18 -23 23 -82 12 -143 -5 -33 -16 -98
-24 -145 -7 -47 -16 -97 -20 -112 -4 -15 -10 -69 -13 -120 -5 -61 -11 -93 -19
-93 -11 0 -127 91 -165 130 -11 11 -24 31 -30 45 -10 24 -11 24 -18 5 -5 -11
-9 -39 -9 -62 -1 -39 -20 -73 -42 -73 -26 0 -229 157 -229 178 0 9 13 43 29
77 42 86 91 205 91 221 0 22 24 16 51 -12 21 -22 29 -25 64 -19 22 3 61 7 88
9 35 2 55 9 75 29 35 33 124 95 138 96 6 1 16 -5 21 -11z m390 -268 c14 -11
34 -20 44 -20 9 0 27 -15 38 -34 23 -36 23 -14 -9 -266 -6 -40 -14 -78 -20
-84 -13 -13 -221 -8 -237 6 -17 14 -18 283 -2 293 6 4 19 -2 30 -14 39 -42 63
-21 94 82 9 31 21 57 27 57 5 0 21 -9 35 -20z"/>
<path d="M5506 7910 c-19 -24 -26 -43 -26 -75 0 -49 10 -60 45 -51 31 8 67 76
63 119 -4 46 -46 50 -82 7z"/>
<path d="M4164 1086 c-4 -23 -2 -42 4 -48 7 -7 13 0 18 26 4 23 2 42 -4 48 -7
7 -13 0 -18 -26z"/>
<path d="M3312 7703 c-13 -3 -26 -11 -29 -20 -12 -30 48 -44 82 -19 16 12 17
16 6 30 -14 16 -18 17 -59 9z"/>
<path d="M2842 7658 c-16 -16 -15 -38 1 -38 17 1 47 25 47 39 0 15 -33 14 -48
-1z"/>
<path d="M4310 7338 c-85 -3 -209 -16 -275 -28 -66 -12 -142 -25 -170 -30 -27
-4 -61 -13 -75 -18 -14 -5 -50 -17 -80 -26 -145 -43 -314 -102 -344 -121 -12
-7 -34 -16 -51 -20 -16 -3 -39 -15 -50 -24 -11 -10 -33 -21 -49 -25 -15 -4
-40 -15 -55 -25 -14 -10 -55 -35 -91 -56 -88 -51 -259 -165 -290 -192 -14 -13
-28 -23 -32 -23 -26 0 -324 -286 -437 -419 -50 -59 -221 -295 -221 -306 0 -2
-12 -23 -27 -47 -42 -64 -50 -78 -78 -133 -14 -27 -29 -57 -34 -65 -9 -16 -59
-123 -82 -175 -39 -93 -109 -300 -109 -326 0 -10 -6 -33 -14 -51 -18 -42 -35
-110 -46 -173 -4 -27 -13 -75 -19 -105 -44 -220 -37 -731 13 -980 44 -216 108
-421 172 -553 8 -16 14 -33 14 -38 0 -16 102 -218 148 -294 24 -38 48 -79 55
-90 38 -64 192 -272 254 -345 89 -105 229 -240 333 -322 19 -15 67 -53 105
-83 39 -31 80 -61 91 -68 12 -7 54 -32 94 -57 110 -69 127 -79 240 -136 139
-69 215 -104 228 -104 5 0 40 -14 77 -30 37 -17 74 -30 83 -30 10 0 55 -14
102 -30 46 -17 96 -30 110 -30 14 0 45 -6 70 -14 108 -35 334 -63 565 -72 208
-7 502 23 690 71 28 7 88 22 135 34 156 40 165 42 182 51 9 5 61 27 115 48 86
35 150 64 338 159 25 13 63 36 86 53 23 16 46 30 52 30 5 0 26 13 47 30 21 17
42 30 48 30 6 0 12 3 14 8 2 4 23 21 47 37 25 17 63 48 86 70 23 22 64 59 91
81 60 52 264 253 264 262 0 4 22 30 48 57 26 28 58 66 71 85 58 82 171 252
171 258 0 3 6 13 14 21 22 25 121 219 161 317 20 49 43 103 50 119 21 43 75
210 75 229 0 8 6 30 14 48 38 88 81 359 102 653 6 88 -9 320 -33 490 -23 165
-25 177 -73 365 -7 25 -21 68 -32 95 -11 28 -25 73 -32 100 -7 28 -17 59 -23
70 -6 11 -27 58 -48 105 -20 47 -44 99 -53 117 -9 18 -34 65 -55 104 -21 40
-51 92 -68 116 -16 24 -29 47 -29 51 0 4 -19 33 -43 64 -23 31 -49 67 -57 79
-81 121 -269 327 -415 456 -137 120 -357 274 -515 361 -87 48 -95 52 -106 52
-6 0 -22 8 -35 19 -13 10 -35 22 -49 26 -22 6 -59 21 -135 55 -46 20 -183 68
-225 79 -25 6 -67 18 -95 26 -27 9 -138 31 -245 49 -216 38 -379 46 -660 34z
m565 -78 c28 -7 75 -14 105 -15 30 -1 78 -8 105 -14 28 -7 70 -17 95 -22 70
-17 262 -78 290 -93 14 -7 38 -16 54 -20 16 -4 94 -38 172 -76 150 -72 158
-79 128 -124 -10 -16 -12 -26 -5 -31 6 -3 15 5 20 18 19 50 32 45 209 -75 35
-24 81 -56 104 -73 22 -16 54 -40 71 -53 28 -20 172 -149 216 -193 153 -153
162 -166 119 -197 -10 -7 -18 -17 -18 -23 0 -14 26 -11 40 6 32 38 81 -3 185
-155 17 -25 45 -65 62 -90 17 -25 41 -63 53 -85 12 -22 31 -56 42 -75 31 -53
95 -182 102 -206 5 -15 0 -26 -16 -37 -13 -8 -32 -24 -43 -34 -13 -13 -41 -22
-75 -25 -63 -7 -143 -45 -148 -71 -5 -25 13 -21 50 13 29 27 39 30 99 30 63 0
69 2 93 31 35 41 67 37 79 -10 5 -19 15 -44 23 -55 8 -11 14 -30 14 -43 0 -12
4 -24 9 -28 5 -3 13 -20 16 -38 4 -17 13 -39 19 -47 16 -20 76 -236 76 -275 0
-16 7 -55 15 -85 17 -63 19 -110 6 -110 -10 0 -379 187 -451 228 -25 14 -48
30 -51 35 -6 9 -50 36 -141 87 -21 11 -38 25 -38 30 0 6 -12 10 -26 10 -15 0
-63 24 -112 57 -118 77 -135 83 -166 54 -19 -18 -33 -22 -73 -20 -80 5 -121 0
-137 -17 -22 -21 -49 -10 -77 31 -13 19 -27 35 -30 35 -4 0 -24 16 -45 35 -42
37 -64 44 -64 20 0 -8 6 -15 14 -15 16 0 111 -90 142 -134 20 -29 20 -29 40
-10 10 11 43 26 72 33 49 12 54 12 67 -5 13 -17 11 -21 -11 -38 -26 -19 -50
-43 -124 -122 -38 -40 -41 -47 -21 -41 15 3 49 -4 90 -20 102 -40 146 -62 228
-116 24 -15 45 -27 48 -27 4 0 41 -27 83 -59 267 -204 387 -392 353 -547 -7
-30 -24 -74 -37 -99 -41 -72 -160 -167 -259 -207 -22 -9 -74 -30 -115 -46 -41
-17 -84 -33 -95 -35 -11 -3 -45 -15 -75 -27 -87 -34 -294 -76 -445 -90 -108
-10 -129 -3 -203 70 -29 29 -56 49 -60 46 -4 -4 12 -24 36 -45 60 -54 55 -92
-8 -56 -39 22 -57 18 -69 -17 -10 -29 -12 -30 -29 -15 -10 10 -22 17 -25 17
-4 0 -30 11 -58 25 -57 27 -69 25 -69 -11 0 -27 3 -28 29 -14 13 6 25 4 41 -7
36 -25 102 -59 140 -71 20 -7 50 -25 68 -41 18 -17 44 -36 59 -44 73 -36 103
-52 163 -84 36 -20 101 -54 145 -76 44 -22 96 -52 115 -67 29 -22 122 -80 328
-205 46 -27 131 -96 159 -128 17 -20 48 -64 68 -99 33 -56 37 -71 42 -153 4
-82 2 -93 -19 -127 -40 -64 -243 -272 -345 -354 -54 -43 -100 -81 -103 -84 -3
-3 -16 -13 -30 -23 -14 -9 -45 -33 -70 -52 -25 -19 -63 -44 -85 -56 -22 -12
-48 -28 -58 -37 -21 -18 -94 -59 -184 -102 -34 -16 -64 -34 -68 -40 -3 -5 -13
-10 -21 -10 -12 0 -14 33 -13 208 0 114 5 232 10 262 5 30 12 82 15 115 4 33
13 69 20 80 8 11 14 34 14 53 0 46 34 115 64 132 40 21 38 54 -5 118 -33 48
-36 67 -14 76 23 9 18 40 -12 68 -16 13 -58 42 -95 62 -67 37 -88 58 -88 93
-1 19 -53 83 -68 83 -5 0 -24 18 -43 41 -19 23 -43 45 -54 51 -57 26 -138 95
-129 109 3 5 27 9 54 9 30 0 52 5 57 13 4 8 28 22 53 31 27 10 56 32 72 52 42
56 19 79 -63 64 -48 -9 -59 -6 -59 15 0 8 -17 19 -40 25 -38 10 -45 18 -40 49
1 12 -3 11 -24 -2 -33 -22 -48 -21 -76 3 -13 11 -29 20 -35 20 -7 0 -18 7 -25
15 -7 8 -20 15 -30 15 -10 0 -23 7 -30 15 -7 9 -22 15 -33 13 -17 -3 -21 -11
-22 -56 -1 -29 -6 -57 -11 -62 -9 -8 -41 -3 -128 19 -22 5 -44 7 -50 4 -14 -9
22 -21 63 -22 28 -1 32 -4 26 -18 -22 -52 -16 -141 11 -168 9 -8 32 -15 52
-15 50 0 70 -14 56 -37 -13 -21 -91 -63 -118 -63 -28 0 -83 -37 -89 -60 -13
-51 -37 0 -37 80 0 32 -7 43 -56 88 -58 54 -62 72 -14 72 32 0 60 31 60 65 0
27 -58 82 -90 87 -18 2 -26 10 -28 28 -2 14 -17 36 -33 50 l-30 25 26 52 c14
29 25 59 25 67 0 30 41 105 61 111 20 7 20 8 -9 33 -37 33 -49 72 -21 65 11
-3 19 0 19 6 0 6 -4 11 -10 11 -16 0 -12 13 13 40 33 38 67 88 67 100 0 5 4
10 9 10 14 0 51 78 51 109 0 18 11 38 30 57 16 16 30 36 30 46 0 9 14 32 32
52 25 29 41 37 80 42 57 8 54 19 -5 20 -23 0 -50 4 -59 8 -13 6 -18 4 -18 -9
0 -9 -7 -23 -15 -31 -8 -9 -15 -24 -15 -34 0 -10 -4 -22 -10 -25 -5 -3 -10
-15 -10 -26 0 -27 -30 -37 -45 -15 -12 15 -13 15 -19 0 -3 -8 -6 -40 -6 -69 0
-56 -15 -93 -60 -148 -109 -133 -149 -160 -235 -161 -69 -1 -117 26 -134 75
-9 25 -14 28 -40 23 -49 -10 -95 52 -165 220 -20 49 -21 46 13 46 23 0 32 -7
45 -35 20 -41 49 -59 83 -50 34 8 13 34 -22 27 -15 -2 -25 0 -25 7 0 21 -69
81 -92 81 -55 1 -58 31 -8 68 26 20 60 21 60 3 0 -16 58 -71 75 -71 23 0 111
56 129 82 12 17 12 26 -1 63 -17 43 -15 54 12 91 14 19 13 23 -5 44 -25 29
-25 30 3 55 32 29 93 48 132 41 l34 -7 -15 30 c-15 30 -15 30 -57 16 -23 -7
-57 -18 -75 -25 -29 -11 -35 -10 -47 6 -13 17 -14 15 -15 -27 0 -59 -18 -86
-48 -70 -11 6 -23 20 -27 31 -4 12 -21 24 -47 30 -36 10 -42 9 -60 -9 -10 -12
-27 -21 -37 -21 -10 0 -24 -7 -31 -15 -19 -23 -51 -17 -90 15 -19 17 -40 30
-46 30 -7 0 -14 7 -18 15 -6 17 -36 21 -36 5 0 -5 4 -10 9 -10 5 0 16 -6 23
-14 8 -7 47 -36 87 -64 40 -28 80 -60 88 -72 14 -20 14 -24 -10 -48 -20 -19
-39 -26 -80 -30 -53 -4 -56 -3 -96 37 -45 45 -51 48 -51 25 0 -9 9 -18 20 -21
28 -7 25 -18 -13 -47 -18 -14 -39 -42 -46 -63 -19 -53 -39 -73 -75 -74 -22 0
-38 -9 -53 -28 -21 -27 -22 -30 -7 -60 10 -20 23 -31 37 -31 23 0 104 36 113
51 7 12 61 12 68 0 3 -5 -10 -18 -29 -30 -45 -26 -45 -46 2 -139 26 -52 61
-99 115 -154 77 -78 86 -98 47 -98 -10 0 -19 -4 -19 -10 0 -12 13 -12 64 -1
41 10 86 -3 86 -24 0 -6 -7 -20 -15 -31 -8 -10 -15 -29 -15 -42 0 -12 -9 -40
-20 -61 l-19 -39 -65 5 c-54 5 -71 2 -101 -16 -35 -21 -45 -21 -213 -15 -159
6 -302 22 -462 54 -30 6 -91 18 -135 26 -251 48 -418 117 -511 210 -78 78 -99
128 -91 221 7 98 34 151 134 266 143 164 297 268 446 301 36 8 34 18 -10 49
-21 14 -62 48 -91 75 -46 44 -52 53 -43 71 6 11 11 28 11 39 0 26 81 109 123
127 20 8 38 19 42 25 3 5 44 10 91 10 46 0 84 4 84 9 0 30 -134 29 -192 -1
-24 -12 -47 -26 -53 -30 -46 -37 -61 -53 -91 -95 -19 -26 -34 -53 -34 -60 0
-6 -10 -13 -22 -15 -16 -3 -41 12 -83 47 -99 85 -105 88 -146 67 -19 -10 -49
-28 -66 -40 -40 -28 -51 -28 -87 3 -16 14 -42 25 -57 25 -31 0 -59 31 -59 66
0 57 -101 174 -151 174 -10 0 -21 5 -24 10 -3 6 -25 10 -48 9 -33 0 -38 -2
-22 -9 11 -5 32 -9 46 -9 15 -1 29 -8 33 -16 3 -8 12 -15 20 -15 23 0 126
-108 126 -133 0 -12 7 -41 16 -64 16 -40 19 -43 55 -43 29 0 41 -5 50 -22 10
-18 8 -24 -12 -39 -13 -9 -35 -27 -48 -38 -13 -12 -27 -21 -32 -21 -13 0 -113
-70 -134 -94 -11 -13 -99 -82 -195 -155 -173 -130 -232 -176 -320 -252 -103
-87 -144 -118 -152 -113 -20 13 5 340 38 481 8 34 14 70 14 80 0 10 13 59 29
108 15 50 36 118 46 153 11 37 27 69 39 78 27 19 105 18 127 -2 15 -14 18 -12
38 19 11 19 21 39 21 46 0 19 -18 12 -25 -9 -6 -18 -34 -27 -60 -19 -5 2 -28
3 -50 4 -49 1 -54 17 -29 84 23 61 100 227 125 271 11 19 27 49 35 65 8 17 22
42 32 57 9 15 35 55 56 90 54 85 168 238 178 238 4 0 17 -9 28 -20 11 -11 25
-20 30 -20 6 0 13 -7 16 -15 4 -8 13 -15 22 -15 12 0 11 4 -6 20 -12 12 -22
25 -22 30 0 5 -9 12 -20 15 -11 3 -20 15 -20 25 0 26 290 317 410 411 52 41
129 97 170 124 41 27 87 57 102 67 41 27 33 33 111 -81 9 -14 20 -34 23 -43 7
-19 34 -25 34 -8 0 12 -41 73 -52 78 -5 2 -8 8 -8 13 0 6 -9 23 -21 38 -37 50
-26 57 271 200 36 17 73 31 83 31 10 0 28 5 40 12 84 46 402 133 445 121 16
-4 20 -16 25 -65 3 -33 11 -65 17 -72 9 -8 11 8 8 69 -2 65 0 80 12 81 8 1 47
8 85 14 163 28 655 27 770 0z m-670 -2509 c8 -15 -55 -55 -67 -43 -7 7 -4 16
9 30 19 22 48 28 58 13z m-115 -36 c19 -20 22 -31 17 -67 -7 -52 -35 -78 -86
-78 -82 0 -121 60 -81 125 24 39 32 43 86 44 31 1 46 -5 64 -24z m-190 -139
c0 -23 -81 -59 -109 -48 l-23 8 28 20 c27 18 61 30 92 33 6 0 12 -5 12 -13z
m735 -559 c0 -26 -20 -25 -23 2 -3 16 1 22 10 19 7 -3 13 -12 13 -21z m545
-217 c25 0 31 -4 28 -17 -3 -14 -15 -19 -63 -21 -66 -3 -85 9 -85 58 0 40 9
42 50 10 24 -19 49 -30 70 -30z m-535 -169 c28 -27 65 -64 83 -82 l32 -34 0
-121 c0 -92 -3 -124 -14 -133 -8 -7 -17 -23 -20 -37 -6 -24 -9 -25 -79 -22
l-72 3 4 45 c1 25 9 63 17 85 24 71 18 107 -35 195 -5 8 -17 32 -26 53 -16 36
-37 48 -51 26 -3 -6 3 -24 15 -40 11 -15 21 -32 21 -37 0 -5 14 -35 30 -66 29
-53 30 -59 16 -89 -8 -18 -17 -59 -20 -91 -3 -34 -12 -66 -20 -75 -27 -26
-106 -40 -233 -41 -67 0 -133 -4 -148 -10 -37 -14 -45 13 -12 48 13 15 42 52
63 83 22 31 59 78 83 105 l43 48 -3 84 -4 84 91 24 c50 13 102 28 115 33 49
20 72 12 124 -38z m-367 -120 c3 -49 0 -57 -26 -81 -36 -33 -162 -61 -186 -41
-11 9 -20 10 -36 1 -17 -9 -25 -8 -39 4 -26 23 -39 20 -43 -11 -2 -19 -12 -32
-30 -41 -16 -7 -28 -19 -28 -26 0 -11 -51 -56 -64 -56 -10 0 -114 -74 -143
-103 l-33 -31 0 -107 0 -106 70 -79 c133 -149 134 -154 125 -544 -4 -173 -10
-349 -14 -390 l-6 -75 -30 2 c-16 1 -39 7 -50 12 -11 6 -54 19 -95 30 -84 22
-256 90 -370 146 -41 21 -84 41 -95 46 -11 5 -27 13 -35 19 -8 5 -62 37 -120
71 -58 34 -114 70 -126 80 -11 11 -24 19 -29 19 -4 0 -17 10 -29 21 -12 12
-46 39 -76 61 -65 47 -125 101 -236 209 l-81 79 -6 68 c-13 137 14 231 94 316
21 24 60 54 86 68 174 92 244 127 288 144 28 10 61 24 75 31 14 7 34 13 45 13
12 0 25 4 30 9 6 6 28 14 50 20 103 26 132 34 162 47 17 8 39 14 50 14 10 1
29 7 43 15 14 8 38 14 55 15 16 0 47 6 70 14 84 28 143 45 220 61 44 9 94 22
110 27 17 6 50 14 75 19 25 4 80 17 124 29 90 24 178 39 221 37 29 -2 30 -4
33 -56z m868 -52 c3 -6 21 -17 38 -24 17 -8 46 -25 65 -39 40 -30 51 -32 51
-12 0 8 -10 18 -22 22 -25 7 -59 45 -51 56 7 12 32 10 96 -9 44 -14 69 -28 97
-59 21 -23 55 -54 75 -70 20 -15 41 -38 46 -51 10 -28 -14 -111 -39 -130 -22
-18 -83 -16 -111 3 -19 14 -26 14 -48 3 -20 -11 -28 -11 -46 0 -11 8 -22 10
-24 5 -13 -36 -22 -39 -115 -36 -85 3 -95 5 -116 29 l-23 25 -49 -25 c-42 -22
-53 -24 -79 -14 -25 9 -33 8 -49 -6 -26 -23 -44 -21 -66 9 -26 36 -17 91 22
134 17 18 37 47 44 64 18 45 87 106 119 106 15 0 42 7 60 15 40 17 115 20 125
4z m-636 -304 c0 -8 -6 -15 -14 -15 -17 0 -28 14 -19 24 12 12 33 6 33 -9z
m210 0 c0 -12 -14 -15 -69 -15 -65 0 -90 8 -74 24 3 3 37 6 75 6 54 0 68 -3
68 -15z m-345 -24 c48 -7 46 -8 -46 -15 -102 -9 -192 -1 -168 15 16 10 143 10
214 0z m-647 -107 c19 -13 22 -24 22 -75 0 -69 -18 -86 -50 -48 -14 18 -19 39
-20 82 0 62 8 69 48 41z m157 -97 l60 -32 1 -105 c1 -133 1 -130 20 -130 13 0
15 7 10 32 -3 17 -3 67 0 110 8 88 11 91 79 58 22 -11 48 -19 58 -20 27 0 94
-37 101 -55 3 -9 6 -44 6 -78 1 -34 7 -80 15 -102 8 -22 15 -56 15 -76 0 -19
7 -44 15 -55 13 -17 14 -14 14 41 0 37 -5 67 -14 79 -16 21 -22 151 -7 160 4
2 20 -10 34 -28 39 -49 63 -51 106 -10 65 63 73 48 66 -112 -4 -81 -2 -114 5
-109 7 4 11 46 11 105 0 95 1 99 27 118 26 19 27 19 84 -4 75 -31 97 -30 130
2 25 24 32 25 66 17 38 -9 38 -9 38 -61 0 -58 18 -76 23 -22 6 56 22 67 104
66 66 -1 73 -3 76 -22 2 -11 -4 -27 -13 -34 -8 -7 -15 -28 -15 -46 0 -19 -4
-34 -9 -34 -12 0 -51 -80 -51 -104 0 -34 26 7 73 114 9 19 26 57 39 83 54 114
58 118 81 115 30 -4 33 -31 8 -79 -12 -22 -21 -46 -21 -53 0 -8 -4 -16 -9 -18
-4 -1 -12 -14 -16 -27 -5 -17 -4 -22 6 -19 8 3 15 15 17 27 2 12 10 25 18 28
8 3 14 13 14 23 0 10 6 23 14 30 8 6 16 21 18 32 4 27 30 43 54 33 11 -4 28
-8 39 -9 15 -1 21 -9 23 -33 4 -41 17 -42 30 -3 11 29 25 37 87 42 27 3 31 7
35 43 l5 40 58 3 c56 3 57 2 57 -24 0 -28 -26 -116 -44 -149 -6 -11 -13 -69
-17 -130 -4 -60 -12 -132 -19 -159 -11 -44 -10 -54 5 -82 15 -29 16 -34 1 -62
-23 -45 -19 -172 5 -172 5 0 9 33 9 73 0 49 5 80 15 93 19 25 19 39 -1 58 -14
14 -14 24 0 106 9 49 16 127 16 173 0 54 5 89 14 102 7 11 17 36 21 55 4 19
11 40 15 45 4 6 10 22 14 38 6 24 11 27 50 27 47 0 61 -7 46 -25 -5 -6 -14
-35 -19 -65 -24 -132 -39 -209 -44 -217 -3 -4 -8 -129 -12 -278 -6 -261 -7
-271 -28 -287 -40 -32 -57 -24 -57 27 0 33 -4 45 -15 45 -11 0 -15 -12 -15
-46 0 -70 -9 -79 -117 -114 -138 -43 -154 -44 -170 0 l-12 35 -1 -30 c-1 -47
-13 -57 -91 -71 -41 -7 -84 -16 -96 -20 -14 -4 -23 -2 -23 5 0 6 -4 11 -10 11
-5 0 -10 -6 -10 -14 0 -7 -6 -19 -14 -25 -24 -20 -36 18 -37 121 l-2 93 -9
-105 c-5 -61 -14 -108 -21 -112 -7 -4 -39 -8 -73 -8 -33 0 -87 -5 -119 -11
-50 -9 -60 -8 -67 5 -8 15 -12 14 -35 -4 -27 -21 -115 -28 -141 -11 -11 7 -13
71 -7 359 4 229 3 352 -4 356 -19 12 -22 -59 -19 -387 2 -213 0 -327 -7 -328
-33 -4 -122 5 -132 13 -9 7 -13 41 -13 104 0 125 -18 122 -22 -3 l-3 -98 -100
3 c-55 2 -104 8 -110 13 -6 6 -10 109 -10 269 0 194 -3 262 -12 271 -9 9 -13
47 -13 115 0 122 -10 224 -21 224 -5 0 -9 -69 -9 -153 0 -121 3 -157 15 -175
18 -25 21 -95 18 -359 -3 -172 -3 -173 -25 -173 -26 0 -94 22 -105 34 -4 4 -6
69 -3 144 11 294 6 665 -9 702 -35 86 -46 108 -73 147 -27 36 -29 46 -23 85 4
23 9 46 12 51 8 14 38 6 98 -26z"/>
<path d="M4934 7205 c-7 -17 4 -37 17 -30 12 8 12 45 -1 45 -6 0 -13 -7 -16
-15z"/>
<path d="M4916 7114 c-10 -26 -7 -104 4 -104 6 0 10 27 10 60 0 62 -3 72 -14
44z"/>
<path d="M4023 7030 c0 -25 2 -35 4 -22 2 12 2 32 0 45 -2 12 -4 2 -4 -23z"/>
<path d="M4887 6993 c-4 -3 -7 -36 -7 -72 0 -83 19 -70 27 18 5 56 -1 73 -20
54z"/>
<path d="M4051 6848 c-1 -33 3 -58 9 -58 12 0 12 67 0 95 -6 14 -9 4 -9 -37z"/>
<path d="M4857 6808 c-10 -35 -8 -128 2 -128 18 0 28 113 12 138 -6 10 -10 8
-14 -10z"/>
<path d="M5753 6783 c-4 -10 -11 -21 -16 -24 -5 -4 -7 -15 -5 -25 5 -18 5 -18
13 1 5 11 14 24 22 28 15 9 18 37 3 37 -6 0 -14 -8 -17 -17z"/>
<path d="M4076 6733 c-8 -8 -8 -51 0 -80 11 -40 24 -25 24 26 0 47 -9 68 -24
54z"/>
<path d="M3200 6713 c0 -19 33 -83 42 -83 5 0 13 -10 18 -22 6 -13 14 -30 19
-38 5 -8 12 -24 16 -34 4 -14 9 -16 16 -9 8 8 3 24 -15 54 -14 24 -30 54 -36
67 -13 29 -60 80 -60 65z"/>
<path d="M4827 6618 c-3 -13 -2 -48 2 -78 6 -35 9 -44 10 -24 0 17 4 52 7 78
7 48 -9 67 -19 24z"/>
<path d="M4105 6590 c-9 -14 4 -70 16 -70 12 0 12 67 0 75 -5 3 -13 1 -16 -5z"/>
<path d="M5640 6575 c0 -7 -6 -18 -14 -22 -17 -10 -51 -82 -42 -90 4 -4 9 3
13 15 3 12 9 22 14 22 5 0 16 17 26 38 9 20 19 40 21 45 2 4 -1 7 -7 7 -6 0
-11 -7 -11 -15z"/>
<path d="M3320 6500 c0 -15 32 -63 47 -73 7 -4 13 -17 13 -28 0 -11 7 -22 15
-25 8 -4 15 -14 15 -24 0 -11 5 -22 10 -25 6 -3 10 3 10 14 0 11 -4 23 -10 26
-5 3 -10 14 -10 23 0 10 -9 25 -20 35 -11 9 -20 24 -20 32 0 8 -4 15 -9 15 -5
0 -13 9 -16 20 -7 21 -25 28 -25 10z"/>
<path d="M4131 6458 c1 -13 5 -36 9 -53 7 -26 8 -22 9 23 0 29 -3 52 -9 52 -5
0 -9 -10 -9 -22z"/>
<path d="M4145 6330 c-3 -5 -1 -18 4 -27 9 -16 10 -14 11 10 0 28 -5 34 -15
17z"/>
<path d="M5497 6334 c-4 -4 -7 -14 -7 -23 0 -11 3 -12 11 -4 6 6 10 16 7 23
-2 6 -7 8 -11 4z"/>
<path d="M3441 6292 c-1 -12 6 -25 14 -28 8 -4 15 -14 15 -24 0 -10 7 -23 15
-30 8 -7 15 -19 15 -27 0 -7 6 -16 14 -19 8 -3 17 -17 21 -32 4 -15 10 -21 12
-15 5 15 -27 93 -39 93 -4 0 -8 6 -8 13 0 8 -8 23 -17 35 -10 11 -23 29 -30
39 -11 17 -12 16 -12 -5z"/>
<path d="M4798 6284 c-5 -4 -8 -25 -8 -48 0 -28 3 -37 11 -29 6 6 9 27 7 48
-2 20 -6 33 -10 29z"/>
<path d="M5460 6270 c0 -19 3 -21 12 -12 9 9 9 15 0 24 -9 9 -12 7 -12 -12z"/>
<path d="M4168 6264 c-8 -15 4 -134 13 -134 12 0 11 111 0 129 -5 7 -11 9 -13
5z"/>
<path d="M6497 6237 c-20 -13 -89 -72 -144 -124 -19 -18 -38 -33 -42 -33 -3 0
-18 -12 -31 -28 -14 -15 -58 -52 -98 -82 -40 -30 -68 -56 -63 -58 12 -4 58 25
91 58 14 14 43 38 64 54 22 16 60 49 85 73 24 24 48 43 51 43 4 0 23 13 41 30
19 16 37 30 40 30 4 0 14 11 23 25 18 27 12 31 -17 12z"/>
<path d="M4766 6174 c-9 -24 -7 -84 3 -84 9 0 21 47 21 81 0 23 -16 25 -24 3z"/>
<path d="M2435 6160 c3 -5 13 -10 21 -10 8 0 12 5 9 10 -3 6 -13 10 -21 10 -8
0 -12 -4 -9 -10z"/>
<path d="M5395 6159 c-4 -6 -5 -13 -2 -16 7 -7 27 6 27 18 0 12 -17 12 -25 -2z"/>
<path d="M5370 6110 c0 -11 5 -20 10 -20 6 0 10 9 10 20 0 11 -4 20 -10 20 -5
0 -10 -9 -10 -20z"/>
<path d="M2542 6098 c3 -7 36 -37 73 -66 38 -29 82 -63 99 -77 16 -13 33 -22
38 -19 12 7 0 24 -18 24 -8 0 -14 7 -14 15 0 8 -6 15 -14 15 -8 0 -16 7 -20
15 -3 8 -13 15 -23 15 -10 1 -29 14 -43 30 -13 17 -29 30 -36 30 -7 0 -14 7
-18 15 -7 18 -29 20 -24 3z"/>
<path d="M4195 6087 c-9 -33 3 -117 16 -117 12 0 12 110 0 129 -8 12 -11 9
-16 -12z"/>
<path d="M3560 6081 c0 -10 7 -24 15 -31 8 -7 15 -19 15 -27 0 -7 7 -16 15
-19 8 -4 15 -13 15 -20 0 -12 32 -66 50 -84 3 -3 13 -21 24 -40 10 -19 24 -39
30 -45 7 -5 15 -18 19 -27 7 -19 27 -25 27 -9 0 5 -7 16 -15 25 -8 8 -15 17
-15 21 0 10 -44 69 -57 78 -7 4 -13 17 -13 27 0 11 -4 20 -9 20 -5 0 -12 11
-15 25 -4 14 -11 25 -16 25 -6 0 -10 8 -10 18 0 10 -9 25 -20 35 -11 9 -20 24
-20 32 0 8 -4 15 -10 15 -5 0 -10 -8 -10 -19z"/>
<path d="M4736 6034 c-10 -25 -7 -84 4 -84 6 0 10 23 10 50 0 52 -4 61 -14 34z"/>
<path d="M4226 5941 c-8 -13 5 -71 15 -71 12 0 11 67 0 75 -5 3 -12 1 -15 -4z"/>
<path d="M2810 5891 c0 -4 12 -17 26 -27 14 -10 31 -23 38 -29 6 -5 43 -36 81
-68 39 -33 80 -67 93 -78 12 -10 26 -19 31 -19 4 0 24 -15 44 -32 49 -45 56
-50 100 -77 20 -12 37 -26 37 -31 0 -5 17 -19 38 -31 20 -13 39 -25 42 -29 3
-3 23 -17 45 -31 22 -14 51 -38 65 -52 14 -15 30 -27 36 -27 7 0 14 -7 18 -15
3 -8 12 -15 21 -15 8 0 15 -4 15 -9 0 -5 8 -12 19 -16 10 -3 31 -19 47 -35 16
-16 35 -30 42 -30 6 0 12 -3 12 -7 0 -5 17 -19 37 -33 21 -14 47 -35 59 -47
21 -23 44 -30 44 -15 0 9 -68 72 -78 72 -4 0 -27 18 -52 40 -25 22 -63 53 -85
68 -22 15 -41 30 -43 35 -2 4 -10 7 -18 7 -8 0 -17 7 -20 15 -4 8 -12 15 -20
15 -7 0 -17 6 -21 13 -8 12 -35 31 -62 44 -8 3 -22 14 -31 22 -40 39 -81 71
-88 71 -5 0 -22 13 -38 30 -16 16 -36 30 -45 30 -9 0 -19 6 -22 14 -6 14 -120
106 -133 106 -4 0 -17 10 -29 23 -30 30 -80 72 -132 109 -24 17 -43 35 -43 40
0 4 -7 8 -15 8 -8 0 -15 -4 -15 -9z"/>
<path d="M6040 5864 c-60 -47 -129 -105 -149 -125 -9 -8 -43 -36 -76 -62 -98
-76 -120 -96 -112 -103 8 -9 43 14 92 60 21 20 41 36 44 36 3 0 26 18 51 41
25 22 72 61 105 86 61 47 105 88 105 98 0 12 -17 3 -60 -31z"/>
<path d="M4259 5815 c-8 -16 2 -135 12 -135 10 0 11 35 1 100 -4 25 -10 41
-13 35z"/>
<path d="M3770 5738 c0 -13 5 -29 11 -35 14 -14 36 -52 45 -75 3 -10 10 -18
15 -18 12 0 11 28 -1 43 -42 49 -50 62 -50 78 0 10 -4 21 -10 24 -6 3 -10 -4
-10 -17z"/>
<path d="M4677 5663 c-11 -10 -8 -113 3 -113 6 0 10 27 10 60 0 61 -1 65 -13
53z"/>
<path d="M4290 5571 c0 -23 5 -41 10 -41 6 0 10 15 10 34 0 19 -4 38 -10 41
-6 4 -10 -10 -10 -34z"/>
<path d="M3862 5579 c1 -12 9 -24 16 -27 9 -3 13 3 10 19 -1 12 -9 24 -16 27
-9 3 -13 -3 -10 -19z"/>
<path d="M5643 5541 c-17 -11 -47 -23 -67 -26 -19 -4 -40 -13 -47 -21 -6 -8
-19 -14 -29 -14 -10 0 -23 -7 -30 -15 -7 -8 -18 -15 -25 -15 -21 0 -145 -121
-145 -141 0 -24 18 -25 27 -1 10 25 105 112 124 112 9 0 22 7 29 15 7 8 19 15
28 15 8 0 24 8 35 17 16 15 39 18 147 18 105 0 126 2 117 13 -7 10 -24 11 -59
7 -48 -7 -48 -7 -54 24 -8 36 -9 37 -51 12z"/>
<path d="M3890 5533 c0 -5 5 -15 10 -23 8 -12 10 -11 10 8 0 12 -4 22 -10 22
-5 0 -10 -3 -10 -7z"/>
<path d="M5037 5510 c-3 -13 0 -20 9 -20 8 0 14 9 14 20 0 11 -4 20 -9 20 -5
0 -11 -9 -14 -20z"/>
<path d="M4647 5506 c-10 -26 -8 -126 2 -126 11 0 19 103 10 127 -5 15 -6 15
-12 -1z"/>
<path d="M4316 5501 c-8 -13 5 -71 15 -71 12 0 11 67 0 75 -5 3 -12 1 -15 -4z"/>
<path d="M3920 5470 c0 -10 6 -23 13 -27 14 -9 32 -37 47 -70 5 -13 14 -23 20
-23 5 0 10 -8 10 -19 0 -10 7 -24 15 -31 8 -7 15 -21 15 -32 0 -10 7 -21 15
-24 8 -4 15 -11 15 -18 0 -6 12 -22 25 -35 20 -18 25 -20 25 -7 0 9 -4 16 -10
16 -5 0 -10 7 -10 15 0 9 -7 18 -15 21 -8 4 -15 12 -15 20 0 8 -9 22 -20 31
-11 10 -20 23 -20 30 0 8 -11 30 -24 51 -12 20 -26 47 -30 60 -4 12 -11 22
-16 22 -4 0 -10 9 -13 20 -7 26 -27 26 -27 0z"/>
<path d="M5010 5465 c0 -8 5 -15 10 -15 6 0 10 7 10 15 0 8 -4 15 -10 15 -5 0
-10 -7 -10 -15z"/>
<path d="M6714 5435 c-3 -20 -4 -39 0 -42 9 -9 13 -2 19 40 7 47 -10 49 -19 2z"/>
<path d="M4347 5368 c-7 -19 4 -111 14 -122 5 -6 9 18 9 56 0 62 -12 95 -23
66z"/>
<path d="M6680 5351 c-8 -16 -21 -21 -54 -21 -25 0 -48 -6 -55 -14 -17 -20 2
-28 36 -15 15 6 44 8 64 5 40 -6 63 10 57 41 -5 26 -35 28 -48 4z"/>
<path d="M3400 5340 c0 -5 9 -10 20 -10 11 0 20 5 20 10 0 6 -9 10 -20 10 -11
0 -20 -4 -20 -10z"/>
<path d="M4616 5314 c-10 -26 -7 -104 4 -104 6 0 10 27 10 60 0 62 -3 72 -14
44z"/>
<path d="M3450 5315 c0 -3 9 -15 20 -27 15 -16 20 -18 20 -7 0 8 -5 20 -12 27
-12 12 -28 16 -28 7z"/>
<path d="M3500 5256 c0 -8 5 -18 10 -21 6 -3 10 3 10 14 0 12 -4 21 -10 21 -5
0 -10 -6 -10 -14z"/>
<path d="M5272 5239 c-5 -14 -23 -37 -39 -52 -123 -113 -156 -146 -145 -147 7
0 15 7 18 15 4 8 10 15 15 15 11 0 24 10 70 53 21 19 36 26 53 21 20 -5 24 0
35 39 16 54 10 97 -7 56z"/>
<path d="M4592 5110 c0 -19 2 -27 5 -17 2 9 2 25 0 35 -3 9 -5 1 -5 -18z"/>
<path d="M3810 5110 c0 -5 4 -10 9 -10 5 0 33 -20 62 -45 29 -25 60 -45 68
-45 15 0 2 13 -79 83 -32 27 -60 35 -60 17z"/>
<path d="M3539 5101 c-1 -6 -2 -17 -3 -23 -1 -10 25 -13 97 -14 53 0 97 3 97
7 0 14 -43 22 -104 21 -33 -1 -65 3 -73 9 -9 9 -13 8 -14 0z"/>
<path d="M4160 5090 c0 -11 7 -23 15 -26 8 -4 15 -12 15 -20 0 -8 7 -14 15
-14 13 0 11 7 -7 40 -25 44 -38 51 -38 20z"/>
<path d="M5278 5045 c-3 -48 -4 -49 -60 -82 -32 -19 -58 -38 -58 -42 0 -4 -9
-18 -20 -31 -24 -27 -25 -40 -5 -66 14 -18 14 -17 15 14 0 32 44 102 64 102 5
0 26 7 46 16 36 16 38 19 38 64 0 67 -16 87 -20 25z"/>
<path d="M3740 5052 c0 -4 13 -19 30 -32 16 -14 29 -30 30 -37 0 -16 17 -26
24 -14 3 5 -10 27 -30 50 -34 39 -54 51 -54 33z"/>
<path d="M5034 5015 c-4 -8 -12 -15 -19 -15 -7 0 -15 -7 -19 -15 -3 -8 -12
-15 -21 -15 -8 0 -15 -5 -15 -10 0 -6 -11 -15 -25 -20 -14 -5 -25 -14 -25 -20
0 -5 -7 -10 -15 -10 -8 0 -15 -6 -15 -13 0 -22 -48 -41 -103 -42 l-52 0 -3 38
c-3 32 -6 37 -29 37 -25 0 -25 -1 -9 -19 14 -15 16 -29 11 -60 -5 -33 -3 -42
9 -47 9 -3 23 -1 31 6 8 7 38 10 72 9 57 -3 58 -2 61 25 2 17 12 30 27 36 12
5 24 13 26 18 2 5 25 25 50 44 79 59 107 88 86 88 -10 0 -20 -7 -23 -15z"/>
<path d="M5845 5019 c-4 -6 -5 -13 -2 -16 7 -7 27 6 27 18 0 12 -17 12 -25 -2z"/>
<path d="M5807 4993 c-12 -12 -7 -22 8 -17 8 4 15 10 15 15 0 11 -14 12 -23 2z"/>
<path d="M3830 4918 c0 -18 5 -40 10 -48 7 -11 10 -4 10 27 0 23 -4 45 -10 48
-6 4 -10 -7 -10 -27z"/>
<path d="M3840 4815 c0 -23 34 -36 55 -21 18 13 18 14 -3 25 -29 15 -52 14
-52 -4z"/>
<path d="M4894 4785 c15 -14 32 -25 38 -25 6 0 1 11 -12 25 -13 14 -30 25 -38
25 -10 0 -6 -9 12 -25z"/>
<path d="M5127 4767 c-8 -19 -23 -40 -34 -46 -15 -10 -13 -11 16 -9 30 3 36 7
44 37 12 49 -8 63 -26 18z"/>
<path d="M4645 4726 c-34 -12 -36 -14 -14 -15 14 -1 47 -4 73 -7 38 -6 46 -4
46 10 0 9 -6 16 -12 16 -7 0 -22 2 -33 5 -11 2 -38 -2 -60 -9z"/>
<path d="M4514 4653 c-28 -27 -67 -69 -88 -95 -21 -27 -44 -48 -52 -48 -9 0
-12 -5 -8 -12 4 -7 7 -29 5 -49 -2 -46 15 -60 24 -20 14 64 97 191 151 231 32
24 43 40 26 40 -4 0 -30 -21 -58 -47z"/>
<path d="M5005 4419 c-4 -6 -5 -13 -2 -16 7 -7 27 6 27 18 0 12 -17 12 -25 -2z"/>
<path d="M4810 4300 c-8 -5 -12 -12 -9 -15 8 -8 39 5 39 16 0 11 -11 11 -30
-1z"/>
<path d="M4840 4195 c-13 -14 -21 -28 -17 -31 7 -7 57 36 57 49 0 14 -17 7
-40 -18z"/>
<path d="M5000 4118 c1 -24 -1 -53 -5 -64 -4 -13 -2 -25 5 -29 17 -11 24 2 22
40 -2 24 4 41 18 55 25 25 18 40 -16 40 -23 0 -25 -4 -24 -42z"/>
<path d="M4780 4128 c1 -7 7 -24 14 -37 l13 -24 7 27 c4 15 4 31 1 36 -9 14
-35 12 -35 -2z"/>
<path d="M4034 4085 c-18 -14 -17 -14 14 -15 22 0 32 5 32 15 0 19 -21 19 -46
0z"/>
<path d="M5116 4091 c-5 -7 63 -51 79 -51 16 0 1 21 -19 26 -14 3 -27 12 -30
20 -6 16 -22 19 -30 5z"/>
<path d="M5370 4075 c-7 -8 -9 -22 -6 -31 6 -15 8 -15 24 -1 18 17 46 8 68
-21 7 -9 13 -11 17 -5 3 5 -14 24 -39 41 -52 37 -48 36 -64 17z"/>
<path d="M3990 4061 c-44 -18 -61 -39 -63 -79 -1 -47 -1 -48 36 -57 18 -5 27
-3 27 5 0 6 -9 14 -20 17 -32 8 -37 49 -9 73 13 10 29 19 36 20 15 0 26 17 16
23 -5 2 -15 2 -23 -2z"/>
<path d="M4820 4054 c0 -17 18 -36 30 -32 7 2 4 10 -9 22 -12 11 -21 15 -21
10z"/>
<path d="M4950 4050 c0 -6 -10 -15 -22 -20 -16 -6 -18 -9 -7 -9 9 -1 27 8 40
19 20 16 21 19 7 20 -10 0 -18 -5 -18 -10z"/>
<path d="M5270 4000 c0 -5 10 -10 23 -10 18 0 19 2 7 10 -19 13 -30 13 -30 0z"/>
<path d="M5322 3983 c2 -10 10 -18 18 -18 8 0 16 8 18 18 2 12 -3 17 -18 17
-15 0 -20 -5 -18 -17z"/>
<path d="M4697 3853 c-15 -15 -5 -23 28 -23 24 0 35 -5 35 -15 0 -10 11 -15
35 -15 44 0 46 16 3 25 -18 4 -42 14 -53 21 -21 15 -38 18 -48 7z"/>
<path d="M5267 3313 c-14 -13 -6 -43 13 -55 11 -7 20 -22 20 -32 0 -15 3 -17
12 -8 8 8 8 15 1 24 -6 7 -14 28 -18 46 -6 31 -15 39 -28 25z"/>
<path d="M5258 2635 c-10 -13 -18 -31 -18 -40 0 -8 -6 -18 -14 -21 -16 -6 -40
-100 -33 -134 3 -17 5 -13 6 15 1 27 8 46 21 58 11 9 20 26 20 36 0 11 4 22 9
26 11 6 41 63 41 77 0 15 -15 8 -32 -17z"/>
<path d="M4790 2576 c-8 -14 -32 -45 -53 -70 -40 -47 -43 -86 -4 -44 48 51 87
107 87 122 0 23 -13 20 -30 -8z"/>
<path d="M5075 2565 c-3 -8 -7 -22 -10 -30 -2 -9 2 -15 10 -15 10 0 15 10 15
30 0 32 -8 40 -15 15z"/>
<path d="M5040 2495 c0 -8 5 -15 10 -15 6 0 10 7 10 15 0 8 -4 15 -10 15 -5 0
-10 -7 -10 -15z"/>
<path d="M5010 2449 c0 -11 5 -17 10 -14 6 3 10 13 10 21 0 8 -4 14 -10 14 -5
0 -10 -9 -10 -21z"/>
<path d="M4291 2258 c0 -111 4 -175 9 -163 12 29 12 332 0 340 -7 4 -10 -57
-9 -177z"/>
<path d="M4916 2432 c-2 -4 -1 -23 4 -42 l8 -35 1 43 c1 41 -3 50 -13 34z"/>
<path d="M4978 2408 c-2 -7 -1 -69 2 -138 5 -85 7 -104 9 -60 1 36 4 98 7 138
2 39 0 72 -5 72 -5 0 -11 -6 -13 -12z"/>
<path d="M4676 2384 c-4 -15 -14 -33 -21 -41 -17 -17 -20 -53 -5 -53 6 0 15
10 21 23 5 12 16 33 24 46 13 23 11 51 -5 51 -4 0 -11 -12 -14 -26z"/>
<path d="M5187 2388 c-7 -21 -8 -257 -1 -332 12 -123 23 -47 21 152 -2 175 -6
215 -20 180z"/>
<path d="M4923 2265 c0 -22 2 -30 4 -17 2 12 2 30 0 40 -3 9 -5 -1 -4 -23z"/>
<path d="M4628 2274 c-5 -4 -8 -50 -8 -103 1 -70 3 -91 11 -79 11 20 8 194 -3
182z"/>
<path d="M6830 7229 c-93 -42 -131 -142 -74 -194 19 -18 38 -25 65 -25 34 0
43 6 84 57 43 52 47 61 42 98 -4 26 -15 48 -32 62 -31 27 -29 27 -85 2z"/>
<path d="M6904 2104 c-69 -37 -104 -63 -104 -79 0 -15 80 -85 97 -85 16 0 38
30 76 101 27 50 33 69 24 78 -17 17 -39 13 -93 -15z"/>
<path d="M6590 2088 c0 -17 18 -44 24 -37 8 7 -5 49 -15 49 -5 0 -9 -6 -9 -12z"/>
<path d="M6620 2011 c0 -10 6 -24 14 -30 7 -6 16 -25 20 -41 3 -17 10 -30 16
-30 15 0 12 46 -4 59 -8 7 -17 23 -20 36 -7 29 -26 33 -26 6z"/>
<path d="M7314 1739 c-80 -43 -145 -91 -142 -104 2 -6 29 -35 61 -63 50 -45
60 -51 78 -42 11 6 23 19 26 28 4 9 16 33 28 52 30 50 58 128 51 145 -8 23
-37 18 -102 -16z"/>
<path d="M3302 590 c0 -19 2 -27 5 -17 2 9 2 25 0 35 -3 9 -5 1 -5 -18z"/>
</g>
</svg>
